<?xml version="1.0" encoding="utf-8"?>
<!-- Generator: Adobe Illustrator 25.2.3, SVG Export Plug-In . SVG Version: 6.00 Build 0)  -->
<svg version="1.1" id="レイヤー_1" xmlns="http://www.w3.org/2000/svg" xmlns:xlink="http://www.w3.org/1999/xlink" x="0px"
	 y="0px" viewBox="0 0 83.2 263.1" style="enable-background:new 0 0 83.2 263.1;" xml:space="preserve">
<style type="text/css">
	.st0{enable-background:new    ;}
	.st1{fill:#333333;}
</style>
<g>
	
		<text transform="matrix(6.123234e-17 1 -1 6.123234e-17 469.8613 0.8993)" class="st1" style="font-family:'Impact'; font-size:100px;">WORK</text>
</g>
<g>
	
		<text transform="matrix(6.123234e-17 1 -1 6.123234e-17 1002.8809 13.0913)" class="st1" style="font-family:'Impact'; font-size:100px;">CONTACT</text>
</g>
<g class="st0">
	<path class="st1" d="M81.5,40.6L2.5,52.4v-21l14.2-1.1v-7.4L2.5,21.7V0.4l79.1,10.5V40.6z M30.7,29.7c9-1,20-2.1,33.2-3.1
		c-15.1-2.1-26.2-3.4-33.2-3.9V29.7z"/>
	<path class="st1" d="M81.5,55.9v20.5c0,6.5-0.5,11.4-1.5,14.7c-1,3.3-3,6-6.1,8.1s-8,3.1-14.9,3.1c-4.6,0-7.8-0.7-9.7-2.2
		c-1.8-1.4-3.2-4.3-4.2-8.6c-1.1,4.8-2.9,8-5.3,9.7c-2.5,1.7-6.3,2.5-11.5,2.5H21c-5.3,0-9.3-0.6-11.9-1.8c-2.6-1.2-4.3-3.2-5.3-5.8
		c-0.9-2.7-1.4-8.1-1.4-16.4V55.9H81.5z M38.1,76.4H16c0.1,2.9,0.6,4.7,1.4,5.5c0.8,0.8,2.8,1.2,6,1.2h7.4c3.4,0,5.4-0.4,6.2-1.1
		C37.6,81.4,38,79.5,38.1,76.4z M68,76.4H50.4c0,0.9,0,1.6,0,2.1c0,2,0.5,3.3,1.5,3.9c1,0.6,3.8,0.8,8.5,0.8c2.5,0,4.2-0.2,5.2-0.7
		c1-0.5,1.6-1,1.9-1.8C67.8,80,68,78.6,68,76.4z"/>
	<path class="st1" d="M35.2,158.1c-7.9,0-13.6-0.2-16.9-0.6c-3.3-0.4-6.3-1.5-9.1-3.5s-4.8-4.6-6.3-8s-2.2-7.3-2.2-11.7
		c0-4.2,0.7-8,2.1-11.4s3.5-6.1,6.2-8.1c2.8-2.1,5.8-3.3,9-3.7c3.3-0.4,9-0.6,17.1-0.6h13.5c7.9,0,13.6,0.2,16.9,0.6
		c3.3,0.4,6.3,1.5,9.1,3.5c2.7,2,4.8,4.6,6.3,8c1.5,3.4,2.2,7.3,2.2,11.7c0,4.2-0.7,8-2.1,11.4c-1.4,3.4-3.5,6.1-6.2,8.1
		c-2.8,2.1-5.8,3.3-9,3.7c-3.3,0.4-9,0.6-17.1,0.6H35.2z M61.2,137.5c3.7,0,6-0.2,7.1-0.6s1.5-1.2,1.5-2.5c0-1.1-0.4-1.9-1.2-2.5
		c-0.8-0.6-3.3-0.9-7.3-0.9H24.3c-4.6,0-7.4,0.2-8.5,0.6c-1.1,0.4-1.6,1.2-1.6,2.6c0,1.4,0.6,2.3,1.9,2.7c1.2,0.4,4.2,0.6,8.8,0.6
		H61.2z"/>
	<path class="st1" d="M81.5,212.5H28.7c-6,0-10.2-0.2-12.6-0.6c-2.4-0.4-4.9-1.5-7.5-3.5c-2.6-1.9-4.5-4.5-5.8-7.6s-2-6.8-2-11.1
		c0-4.7,0.8-8.9,2.3-12.5s3.6-6.3,6.1-8.1c2.5-1.8,5.2-2.8,7.9-3.2s8.6-0.5,17.6-0.5h46.8V186H22.2c-3.5,0-5.7,0.2-6.6,0.6
		c-1,0.4-1.4,1.1-1.4,2.3c0,1.3,0.5,2.1,1.6,2.5c1.1,0.4,3.6,0.6,7.5,0.6h58.3V212.5z"/>
	<path class="st1" d="M81.5,261.8H65.7v-12.2H2.5v-20.6h63.2v-12.2h15.8V261.8z"/>
</g>
</svg>
