<?xml version="1.0" encoding="utf-8"?>
<!-- Generator: Adobe Illustrator 25.2.3, SVG Export Plug-In . SVG Version: 6.00 Build 0)  -->
<svg version="1.1" id="レイヤー_1" xmlns="http://www.w3.org/2000/svg" xmlns:xlink="http://www.w3.org/1999/xlink" x="0px"
	 y="0px" viewBox="0 0 84.2 359.6" style="enable-background:new 0 0 84.2 359.6;" xml:space="preserve">
<style type="text/css">
	.st0{enable-background:new    ;}
	.st1{fill:#333333;}
</style>
<g>
	
		<text transform="matrix(6.123234e-17 1 -1 6.123234e-17 -530.5029 -13.7916)" class="st1" style="font-family:'Impact'; font-size:100px;">WORK</text>
</g>
<g>
	<g class="st0">
		<path class="st1" d="M47.1,50.5V29.9h13.7c4,0,6.5-0.2,7.5-0.7c1-0.4,1.5-1.4,1.5-2.9c0-1.7-0.6-2.8-1.8-3.2
			c-1.2-0.5-3.8-0.7-7.8-0.7H23.5c-3.8,0-6.3,0.2-7.5,0.7c-1.2,0.5-1.8,1.5-1.8,3.1c0,1.5,0.6,2.5,1.8,3c1.2,0.5,3.9,0.7,8.3,0.7
			h9.9v20.6h-3.1c-8.2,0-14-0.6-17.4-1.7c-3.4-1.2-6.4-3.7-9-7.7c-2.6-4-3.9-8.8-3.9-14.6c0-6,1.1-11,3.3-14.9s5.2-6.5,9.1-7.8
			s9.7-1.9,17.4-1.9h23.1c5.7,0,10,0.2,12.8,0.6c2.8,0.4,5.6,1.6,8.2,3.5c2.6,1.9,4.7,4.6,6.2,8.1c1.5,3.4,2.3,7.4,2.3,11.8
			c0,6.1-1.2,11.1-3.5,15c-2.3,3.9-5.3,6.5-8.8,7.8c-3.5,1.2-8.9,1.9-16.3,1.9H47.1z"/>
		<path class="st1" d="M35.3,104.8c-7.9,0-13.6-0.2-16.9-0.6c-3.3-0.4-6.3-1.5-9.1-3.5c-2.7-2-4.8-4.6-6.3-8
			c-1.5-3.4-2.2-7.3-2.2-11.7c0-4.2,0.7-8,2.1-11.4s3.5-6.1,6.2-8.1c2.8-2.1,5.8-3.3,9-3.7c3.3-0.4,9-0.6,17.1-0.6h13.5
			c7.9,0,13.6,0.2,16.9,0.6c3.3,0.4,6.3,1.5,9.1,3.5c2.7,2,4.8,4.6,6.3,8c1.5,3.4,2.2,7.3,2.2,11.7c0,4.2-0.7,8-2.1,11.4
			c-1.4,3.4-3.5,6.1-6.2,8.1c-2.8,2.1-5.8,3.3-9,3.7c-3.3,0.4-9,0.6-17.1,0.6H35.3z M61.3,84.3c3.7,0,6-0.2,7.1-0.6
			c1-0.4,1.5-1.2,1.5-2.5c0-1.1-0.4-1.9-1.2-2.5c-0.8-0.6-3.3-0.9-7.3-0.9H24.3c-4.6,0-7.4,0.2-8.5,0.6c-1.1,0.4-1.6,1.2-1.6,2.6
			c0,1.4,0.6,2.3,1.9,2.7c1.2,0.4,4.2,0.6,8.8,0.6H61.3z"/>
		<path class="st1" d="M81.6,158.4H2.5v-18l35.9-10.7H2.5v-17.2h79.1v17.2L46,141.2h35.6V158.4z"/>
		<path class="st1" d="M81.6,208.1H65.7v-12.2H2.5v-20.6h63.2v-12.2h15.8V208.1z"/>
		<path class="st1" d="M81.6,244.3L2.5,256v-21l14.2-1.1v-7.4l-14.2-1.2v-21.3l79.1,10.5V244.3z M30.7,233.4c9-1,20-2.1,33.2-3.1
			c-15.1-2.1-26.2-3.4-33.2-3.9V233.4z"/>
		<path class="st1" d="M47.1,307.5V287h13.7c4,0,6.5-0.2,7.5-0.7c1-0.4,1.5-1.4,1.5-2.9c0-1.7-0.6-2.8-1.8-3.2
			c-1.2-0.5-3.8-0.7-7.8-0.7H23.5c-3.8,0-6.3,0.2-7.5,0.7c-1.2,0.5-1.8,1.5-1.8,3.1c0,1.5,0.6,2.5,1.8,3s3.9,0.7,8.3,0.7h9.9v20.6
			h-3.1c-8.2,0-14-0.6-17.4-1.7c-3.4-1.2-6.4-3.7-9-7.7c-2.6-4-3.9-8.8-3.9-14.6c0-6,1.1-11,3.3-14.9s5.2-6.5,9.1-7.8
			s9.7-1.9,17.4-1.9h23.1c5.7,0,10,0.2,12.8,0.6c2.8,0.4,5.6,1.6,8.2,3.5s4.7,4.6,6.2,8.1s2.3,7.4,2.3,11.8c0,6.1-1.2,11.1-3.5,15
			c-2.3,3.9-5.3,6.5-8.8,7.8c-3.5,1.2-8.9,1.9-16.3,1.9H47.1z"/>
		<path class="st1" d="M81.6,356.3H65.7v-12.2H2.5v-20.6h63.2v-12.2h15.8V356.3z"/>
	</g>
</g>
<text transform="matrix(6.123234e-17 1 -1 6.123234e-17 -997.8955 -13.6909)" class="st1" style="font-family:'Impact'; font-size:100px;">ABOUT</text>
</svg>
