<?xml version="1.0" encoding="utf-8"?>
<!-- Generator: Adobe Illustrator 25.2.3, SVG Export Plug-In . SVG Version: 6.00 Build 0)  -->
<svg version="1.1" id="レイヤー_1" xmlns="http://www.w3.org/2000/svg" xmlns:xlink="http://www.w3.org/1999/xlink" x="0px"
	 y="0px" viewBox="0 0 83.2 247.6" style="enable-background:new 0 0 83.2 247.6;" xml:space="preserve">
<style type="text/css">
	.st0{enable-background:new    ;}
	.st1{fill:#888888;}
</style>
<g>
	<g class="st0">
		<path class="st1" d="M81.5,82.4L2.5,73.2V47.6c12.1-2.3,26-4.4,41.5-6.2c-6.6-0.8-20.5-2.7-41.5-5.7V10.1l79.1-9.2v20L53.9,23
			l-26.7,2.1c13.8,0.8,31.9,2.7,54.2,5.7v21.3c-2.3,0.3-11,1-26.1,2.2l-30.1,2.3c19.1,1.2,37.9,3.1,56.2,5.7V82.4z"/>
		<path class="st1" d="M35.2,133.4c-7.9,0-13.6-0.2-16.9-0.6c-3.3-0.4-6.3-1.5-9.1-3.5c-2.7-2-4.8-4.6-6.3-8
			c-1.5-3.4-2.2-7.3-2.2-11.7c0-4.2,0.7-8,2.1-11.4s3.5-6.1,6.2-8.1c2.8-2.1,5.8-3.3,9-3.7c3.3-0.4,9-0.6,17.1-0.6h13.5
			c7.9,0,13.6,0.2,16.9,0.6c3.3,0.4,6.3,1.5,9.1,3.5c2.7,2,4.8,4.6,6.3,8c1.5,3.4,2.2,7.3,2.2,11.7c0,4.2-0.7,8-2.1,11.4
			c-1.4,3.4-3.5,6.1-6.2,8.1c-2.8,2.1-5.8,3.3-9,3.7c-3.3,0.4-9,0.6-17.1,0.6H35.2z M61.2,112.9c3.7,0,6-0.2,7.1-0.6
			c1-0.4,1.5-1.2,1.5-2.5c0-1.1-0.4-1.9-1.2-2.5c-0.8-0.6-3.3-0.9-7.3-0.9H24.3c-4.6,0-7.4,0.2-8.5,0.6c-1.1,0.4-1.6,1.2-1.6,2.6
			c0,1.4,0.6,2.3,1.9,2.7c1.2,0.4,4.2,0.6,8.8,0.6H61.2z"/>
		<path class="st1" d="M81.5,141.1v14.6c0,9.7-0.4,16.3-1.1,19.7c-0.7,3.4-2.7,6.2-5.7,8.4c-3.1,2.2-8,3.2-14.7,3.2
			c-6.2,0-10.3-0.8-12.4-2.3c-2.1-1.5-3.4-4.5-3.8-9c-1,4.1-2.4,6.8-4.1,8.2c-1.7,1.4-3.2,2.3-4.7,2.6s-5.3,0.5-11.7,0.5H2.5v-19.1
			h26.3c4.2,0,6.9-0.3,7.9-1c1-0.7,1.5-2.4,1.5-5.2H2.5v-20.6H81.5z M68,161.6H50.4c0,2.3,0.3,3.9,1,4.9s2.7,1.4,6.2,1.4h4.3
			c2.5,0,4.2-0.4,4.9-1.3C67.6,165.7,68,164,68,161.6z"/>
		<path class="st1" d="M81.5,243.9l-35.7-11.8L2.5,245.1v-21.2l33.9-8.3H2.5v-20.6h79.1v20.6H50.8l30.7,9.2V243.9z"/>
	</g>
</g>
<g>
	
		<text transform="matrix(6.123234e-17 1 -1 6.123234e-17 535.4863 13.0913)" style="fill:#333333; font-family:'Impact'; font-size:100px;">CONTACT</text>
</g>
<text transform="matrix(6.123234e-17 1 -1 6.123234e-17 -464.9258 1.0001)" style="fill:#333333; font-family:'Impact'; font-size:100px;">ABOUT</text>
</svg>
